<svg xmlns="http://www.w3.org/2000/svg" viewBox="0 0 512 512" role="img" aria-label="小钢琴">
  <defs>
    <linearGradient id="bg" x1="0" y1="0" x2="0" y2="1">
      <stop offset="0" stop-color="#7c96ff" />
      <stop offset="1" stop-color="#4c6fff" />
    </linearGradient>
  </defs>
  <rect x="24" y="24" width="464" height="464" rx="104" fill="url(#bg)" />
  <path
    fill="#ffd76a"
    d="M256 94l20.6 43.2 46.4 6.6-33.5 32.9 7.9 46.7L256 200.3l-41.4 23.1 7.9-46.7-33.5-32.9 46.4-6.6z"
  />
  <rect x="88" y="260" width="336" height="132" rx="18" fill="#10142c" opacity="0.35" />
  <g fill="#ffffff">
    <rect x="96" y="268" width="64" height="124" rx="14" />
    <rect x="160" y="268" width="64" height="124" rx="14" />
    <rect x="224" y="268" width="64" height="124" rx="14" />
    <rect x="288" y="268" width="64" height="124" rx="14" />
    <rect x="352" y="268" width="64" height="124" rx="14" />
  </g>
  <g fill="#23283a">
    <rect x="139" y="268" width="37" height="77" rx="7" />
    <rect x="203" y="268" width="37" height="77" rx="7" />
    <rect x="331" y="268" width="37" height="77" rx="7" />
  </g>
</svg>
